# xmcd CD database file
#
# Track frame offsets:
#	150
#	17775
#	48061
#	80627
#	110913
#	133578
#	156154
#	180065
#	201380
#	230091
#	271883
#
# Disc length: 3939 seconds
#
# Revision: 0
# Processed by: cddbd v1.5PL3 Copyright (c) Steve Scherf et al.
# Submitted via: CDex 1.51
#
DISCID=910f610b
DTITLE=Romantic Jazz Trio - The Sweetest Sound
DYEAR=2004
DGENRE=Jazz
TTITLE0=La Comparsa
TTITLE1=My Melancholy Baby
TTITLE2=And I Love Her
TTITLE3=The Gentle Rain
TTITLE4=The Sweetest Sound
TTITLE5=Drum Negrita
TTITLE6=In My Solitude
TTITLE7=The Lamp Is Low
TTITLE8=The Things I Love
TTITLE9=You Must Believe In Spring
TTITLE10=Historia De Un Amor
EXTD=YEAR: 2004
EXTT0=
EXTT1=
EXTT2=
EXTT3=
EXTT4=
EXTT5=
EXTT6=
EXTT7=
EXTT8=
EXTT9=
EXTT10=
PLAYORDER=
